<?xml version="1.0" encoding="UTF-8"?>
<svg version="1.1" xmlns="http://www.w3.org/2000/svg" width="512" height="512">
<path d="M0 0 C1.12921875 -0.01611328 2.2584375 -0.03222656 3.421875 -0.04882812 C12.97821894 -0.05435842 20.848999 1.66984155 29.25 6.3125 C29.25 6.9725 29.25 7.6325 29.25 8.3125 C29.83265625 8.42722656 30.4153125 8.54195312 31.015625 8.66015625 C33.41523135 9.36074062 34.97860933 10.29442595 37 11.75 C37.92039062 12.39775391 37.92039062 12.39775391 38.859375 13.05859375 C39.31828125 13.47238281 39.7771875 13.88617188 40.25 14.3125 C40.25 14.9725 40.25 15.6325 40.25 16.3125 C40.91 16.3125 41.57 16.3125 42.25 16.3125 C43.7578125 17.95703125 43.7578125 17.95703125 45.375 20.125 C45.91382813 20.83269531 46.45265625 21.54039063 47.0078125 22.26953125 C48.25 24.3125 48.25 24.3125 48.25 27.3125 C48.91 27.3125 49.57 27.3125 50.25 27.3125 C51.58333333 30.64583333 52.91666667 33.97916667 54.25 37.3125 C54.81074219 38.59060547 54.81074219 38.59060547 55.3828125 39.89453125 C56.25 42.3125 56.25 42.3125 56.25 46.3125 C56.91 46.539375 57.57 46.76625 58.25 47 C65.57615191 50.20519146 70.78369001 54.6137353 76.23046875 60.42578125 C80.66927977 63.19932035 84.7395466 62.90144667 89.875 62.9375 C91.86342282 62.99249583 93.85171814 63.05233061 95.83984375 63.1171875 C96.78327637 63.14651367 97.72670898 63.17583984 98.69873047 63.20605469 C107.84102776 63.58749408 115.13134625 66.19821125 123.25 70.3125 C123.25 70.9725 123.25 71.6325 123.25 72.3125 C123.98605469 72.5496875 124.72210938 72.786875 125.48046875 73.03125 C128.67715672 74.5101127 130.27278004 76.15625237 132.5625 78.8125 C133.60857422 80.00359375 133.60857422 80.00359375 134.67578125 81.21875 C136.25 83.3125 136.25 83.3125 136.25 85.3125 C136.91 85.3125 137.57 85.3125 138.25 85.3125 C144.36301099 96.60381082 145.22445606 106.617161 145.25 119.3125 C145.58773438 118.8071875 145.92546875 118.301875 146.2734375 117.78125 C146.71945312 117.1315625 147.16546875 116.481875 147.625 115.8125 C148.28628906 114.83796875 148.28628906 114.83796875 148.9609375 113.84375 C149.38632812 113.3384375 149.81171875 112.833125 150.25 112.3125 C150.91 112.3125 151.57 112.3125 152.25 112.3125 C152.25 111.3225 152.25 110.3325 152.25 109.3125 C153.89453125 107.5234375 153.89453125 107.5234375 156.0625 105.6875 C156.77019531 105.07648438 157.47789062 104.46546875 158.20703125 103.8359375 C160.25 102.3125 160.25 102.3125 163.25 101.3125 C163.25 100.6525 163.25 99.9925 163.25 99.3125 C166.71515247 96.68065073 170.51321195 94.53485836 174.25 92.3125 C175.80074219 91.384375 175.80074219 91.384375 177.3828125 90.4375 C201.78749598 76.52623079 228.5541282 79.3125 256.25 79.3125 C256.25 111.3225 256.25 143.3325 256.25 176.3125 C245.69 176.3125 235.13 176.3125 224.25 176.3125 C224.30800781 179.48488281 224.36601562 182.65726563 224.42578125 185.92578125 C224.46499758 189.0669506 224.49523009 192.20809062 224.5246582 195.34936523 C224.54949457 197.49923306 224.58337585 199.64901933 224.62719727 201.79858398 C225.14044954 227.66046053 219.53933625 248.8823871 203.25 269.3125 C202.55390625 270.23675781 201.8578125 271.16101563 201.140625 272.11328125 C200.51671875 272.83902344 199.8928125 273.56476563 199.25 274.3125 C198.59 274.3125 197.93 274.3125 197.25 274.3125 C197.03214844 274.87453125 196.81429688 275.4365625 196.58984375 276.015625 C194.80803354 279.07015679 192.55073012 280.8370062 189.8125 283.0625 C188.84441406 283.86171875 187.87632812 284.6609375 186.87890625 285.484375 C184.25 287.3125 184.25 287.3125 181.25 287.3125 C181.25 287.9725 181.25 288.6325 181.25 289.3125 C178.68873936 290.606674 176.12606642 291.89790784 173.5625 293.1875 C172.84126953 293.55230469 172.12003906 293.91710937 171.37695312 294.29296875 C161.38352273 299.3125 161.38352273 299.3125 157.25 299.3125 C157.12882812 300.16714844 157.00765625 301.02179688 156.8828125 301.90234375 C154.83923741 312.91494285 149.78551661 322.70909654 144.25 332.3125 C143.59 332.3125 142.93 332.3125 142.25 332.3125 C142.0025 333.01375 141.755 333.715 141.5 334.4375 C140.07819762 337.70764548 138.37753712 340.453622 136.25 343.3125 C135.59 343.3125 134.93 343.3125 134.25 343.3125 C134.023125 343.86421875 133.79625 344.4159375 133.5625 344.984375 C131.86274074 347.99942417 129.70195184 350.12480369 127.25 352.5625 C126.363125 353.45453125 125.47625 354.3465625 124.5625 355.265625 C122.25 357.3125 122.25 357.3125 120.25 357.3125 C120.25 357.9725 120.25 358.6325 120.25 359.3125 C118.3515625 360.8203125 118.3515625 360.8203125 115.875 362.4375 C115.06289063 362.97632813 114.25078125 363.51515625 113.4140625 364.0703125 C111.25 365.3125 111.25 365.3125 109.25 365.3125 C109.25 365.9725 109.25 366.6325 109.25 367.3125 C90.93363497 376.78810347 73.84971349 383.78579088 52.86083984 383.73242188 C51.60345001 383.74089142 50.34606018 383.74936096 49.05056763 383.75808716 C45.64502514 383.77729183 42.24003436 383.78324743 38.83447599 383.78133965 C35.96756883 383.78121862 33.1007109 383.7898364 30.2338177 383.79811716 C23.45450934 383.81725667 16.67532404 383.82027075 9.89599609 383.81347656 C2.9601533 383.80685182 -3.97515556 383.82965842 -10.91089022 383.86679029 C-16.91571222 383.89774227 -22.9203648 383.90881981 -28.92526472 383.90495348 C-32.48949098 383.90291103 -36.05330185 383.90796666 -39.61745071 383.93284607 C-68.40732083 384.11783649 -93.45788359 379.10457624 -116.75 361.3125 C-116.75 360.6525 -116.75 359.9925 -116.75 359.3125 C-117.36875 359.003125 -117.9875 358.69375 -118.625 358.375 C-120 357.6875 -121.375 357 -122.75 356.3125 C-122.75 355.6525 -122.75 354.9925 -122.75 354.3125 C-123.41 354.3125 -124.07 354.3125 -124.75 354.3125 C-126.10386936 352.66247172 -127.43678142 350.9950613 -128.75 349.3125 C-129.41 348.9825 -130.07 348.6525 -130.75 348.3125 C-130.75 347.6525 -130.75 346.9925 -130.75 346.3125 C-131.41 346.3125 -132.07 346.3125 -132.75 346.3125 C-133.98339844 344.92651367 -133.98339844 344.92651367 -135.359375 342.98046875 C-135.86299561 342.26914795 -136.36661621 341.55782715 -136.88549805 340.82495117 C-137.41828369 340.05771729 -137.95106934 339.2904834 -138.5 338.5 C-139.05147705 337.72696533 -139.6029541 336.95393066 -140.17114258 336.1574707 C-143.16649753 331.88823427 -145.47841469 327.85483768 -147.4375 323 C-149.35268506 319.25975623 -150.34636694 318.46277032 -154.359375 316.96875 C-157.28712269 316.24834498 -160.23325495 315.71768116 -163.203125 315.203125 C-167.69773076 314.40995928 -171.73420372 313.0021254 -175.9375 311.25 C-177.69126953 310.52103516 -177.69126953 310.52103516 -179.48046875 309.77734375 C-182.61767767 308.3717842 -185.68961727 306.87752121 -188.75 305.3125 C-188.75 304.6525 -188.75 303.9925 -188.75 303.3125 C-189.43707031 303.2403125 -190.12414062 303.168125 -190.83203125 303.09375 C-194.60139851 302.08454859 -197.3456433 300.09795156 -200.4375 297.8125 C-201.05181885 297.36471191 -201.6661377 296.91692383 -202.29907227 296.45556641 C-210.0148778 290.74842515 -217.02276208 284.51574746 -223.1796875 277.13671875 C-224.75425237 275.25224667 -224.75425237 275.25224667 -226.6796875 273.44140625 C-247.82393759 251.69873399 -256.4185343 218.12931203 -256.22485352 188.81958008 C-256.00106398 179.4086411 -254.91793743 171.18889611 -251.75 162.3125 C-251.35296875 161.14847656 -250.9559375 159.98445312 -250.546875 158.78515625 C-246.73892478 148.26509126 -241.5247887 139.74222513 -234.73828125 130.9140625 C-233.34644668 129.09291943 -232.02143354 127.21965031 -230.75 125.3125 C-230.09 125.3125 -229.43 125.3125 -228.75 125.3125 C-228.5128125 124.72984375 -228.275625 124.1471875 -228.03125 123.546875 C-226.4773194 120.83697163 -224.73070569 119.44719198 -222.25 117.5625 C-221.4559375 116.94890625 -220.661875 116.3353125 -219.84375 115.703125 C-217.75 114.3125 -217.75 114.3125 -215.75 114.3125 C-215.75 113.6525 -215.75 112.9925 -215.75 112.3125 C-214.76 112.3125 -213.77 112.3125 -212.75 112.3125 C-212.75 111.6525 -212.75 110.9925 -212.75 110.3125 C-198.60545852 102.18691234 -184.37686851 95.59955085 -167.75 95.3125 C-167.10530762 95.29880371 -166.46061523 95.28510742 -165.79638672 95.27099609 C-157.37554714 95.11182286 -149.11801282 95.2498952 -140.75 96.3125 C-140.70875 95.508125 -140.6675 94.70375 -140.625 93.875 C-139.40333142 88.90106364 -136.74022698 85.40880584 -133.75 81.3125 C-132.8528125 80.013125 -132.8528125 80.013125 -131.9375 78.6875 C-123.59713636 69.63224805 -113.07488051 64.19871325 -100.75 63.3125 C-95.7977365 63.12463566 -90.84227365 63.01733633 -85.88671875 62.97070312 C-80.08890141 62.95783218 -80.08890141 62.95783218 -75.171875 60.26953125 C-74.70265625 59.62371094 -74.2334375 58.97789063 -73.75 58.3125 C-73.09 58.3125 -72.43 58.3125 -71.75 58.3125 C-71.75 57.6525 -71.75 56.9925 -71.75 56.3125 C-69.6545192 54.70399713 -67.56767584 53.21409684 -65.375 51.75 C-64.77171875 51.33814453 -64.1684375 50.92628906 -63.546875 50.50195312 C-59.12504852 47.50002426 -59.12504852 47.50002426 -56.75 46.3125 C-55.6927686 43.75924199 -54.72802908 41.22860788 -53.8125 38.625 C-52.05316327 33.67995892 -50.20665534 28.96914519 -47.75 24.3125 C-47.09 24.3125 -46.43 24.3125 -45.75 24.3125 C-45.564375 23.631875 -45.37875 22.95125 -45.1875 22.25 C-41.32104189 14.34897691 -33.12339746 8.70194385 -25.3125 5.1875 C-24.22066406 4.68992187 -23.12882813 4.19234375 -22.00390625 3.6796875 C-14.38810298 0.47977016 -8.1942662 -0.02306944 0 0 Z " fill="#E71122" transform="translate(255.75,63.6875)"/>
<path d="M0 0 C1.12921875 -0.01611328 2.2584375 -0.03222656 3.421875 -0.04882812 C12.97821894 -0.05435842 20.848999 1.66984155 29.25 6.3125 C29.25 6.9725 29.25 7.6325 29.25 8.3125 C29.83265625 8.42722656 30.4153125 8.54195312 31.015625 8.66015625 C33.41523135 9.36074062 34.97860933 10.29442595 37 11.75 C37.92039062 12.39775391 37.92039062 12.39775391 38.859375 13.05859375 C39.31828125 13.47238281 39.7771875 13.88617188 40.25 14.3125 C40.25 14.9725 40.25 15.6325 40.25 16.3125 C40.91 16.3125 41.57 16.3125 42.25 16.3125 C43.7578125 17.95703125 43.7578125 17.95703125 45.375 20.125 C45.91382813 20.83269531 46.45265625 21.54039063 47.0078125 22.26953125 C48.25 24.3125 48.25 24.3125 48.25 27.3125 C48.91 27.3125 49.57 27.3125 50.25 27.3125 C51.58333333 30.64583333 52.91666667 33.97916667 54.25 37.3125 C54.81074219 38.59060547 54.81074219 38.59060547 55.3828125 39.89453125 C56.25 42.3125 56.25 42.3125 56.25 46.3125 C56.91 46.539375 57.57 46.76625 58.25 47 C65.57615191 50.20519146 70.78369001 54.6137353 76.23046875 60.42578125 C80.66927977 63.19932035 84.7395466 62.90144667 89.875 62.9375 C91.86342282 62.99249583 93.85171814 63.05233061 95.83984375 63.1171875 C96.78327637 63.14651367 97.72670898 63.17583984 98.69873047 63.20605469 C107.84102776 63.58749408 115.13134625 66.19821125 123.25 70.3125 C123.25 70.9725 123.25 71.6325 123.25 72.3125 C123.98605469 72.5496875 124.72210938 72.786875 125.48046875 73.03125 C128.67715672 74.5101127 130.27278004 76.15625237 132.5625 78.8125 C133.60857422 80.00359375 133.60857422 80.00359375 134.67578125 81.21875 C136.25 83.3125 136.25 83.3125 136.25 85.3125 C136.91 85.3125 137.57 85.3125 138.25 85.3125 C144.36301099 96.60381082 145.22445606 106.617161 145.25 119.3125 C145.58773438 118.8071875 145.92546875 118.301875 146.2734375 117.78125 C146.71945312 117.1315625 147.16546875 116.481875 147.625 115.8125 C148.28628906 114.83796875 148.28628906 114.83796875 148.9609375 113.84375 C149.38632812 113.3384375 149.81171875 112.833125 150.25 112.3125 C150.91 112.3125 151.57 112.3125 152.25 112.3125 C152.25 111.3225 152.25 110.3325 152.25 109.3125 C153.89453125 107.5234375 153.89453125 107.5234375 156.0625 105.6875 C156.77019531 105.07648438 157.47789062 104.46546875 158.20703125 103.8359375 C160.25 102.3125 160.25 102.3125 163.25 101.3125 C163.25 100.6525 163.25 99.9925 163.25 99.3125 C166.71515247 96.68065073 170.51321195 94.53485836 174.25 92.3125 C175.80074219 91.384375 175.80074219 91.384375 177.3828125 90.4375 C201.78749598 76.52623079 228.5541282 79.3125 256.25 79.3125 C256.25 111.3225 256.25 143.3325 256.25 176.3125 C245.69 176.3125 235.13 176.3125 224.25 176.3125 C224.30800781 179.48488281 224.36601562 182.65726563 224.42578125 185.92578125 C224.46499758 189.0669506 224.49523009 192.20809062 224.5246582 195.34936523 C224.54949457 197.49923306 224.58337585 199.64901933 224.62719727 201.79858398 C225.14044954 227.66046053 219.53933625 248.8823871 203.25 269.3125 C202.55390625 270.23675781 201.8578125 271.16101563 201.140625 272.11328125 C200.51671875 272.83902344 199.8928125 273.56476563 199.25 274.3125 C198.59 274.3125 197.93 274.3125 197.25 274.3125 C197.03214844 274.87453125 196.81429688 275.4365625 196.58984375 276.015625 C194.80803354 279.07015679 192.55073012 280.8370062 189.8125 283.0625 C188.84441406 283.86171875 187.87632812 284.6609375 186.87890625 285.484375 C184.25 287.3125 184.25 287.3125 181.25 287.3125 C181.25 287.9725 181.25 288.6325 181.25 289.3125 C178.68873936 290.606674 176.12606642 291.89790784 173.5625 293.1875 C172.84126953 293.55230469 172.12003906 293.91710937 171.37695312 294.29296875 C161.38352273 299.3125 161.38352273 299.3125 157.25 299.3125 C157.12882812 300.16714844 157.00765625 301.02179688 156.8828125 301.90234375 C154.83923741 312.91494285 149.78551661 322.70909654 144.25 332.3125 C143.59 332.3125 142.93 332.3125 142.25 332.3125 C142.0025 333.01375 141.755 333.715 141.5 334.4375 C140.07819762 337.70764548 138.37753712 340.453622 136.25 343.3125 C135.59 343.3125 134.93 343.3125 134.25 343.3125 C134.023125 343.86421875 133.79625 344.4159375 133.5625 344.984375 C131.86274074 347.99942417 129.70195184 350.12480369 127.25 352.5625 C126.363125 353.45453125 125.47625 354.3465625 124.5625 355.265625 C122.25 357.3125 122.25 357.3125 120.25 357.3125 C120.25 357.9725 120.25 358.6325 120.25 359.3125 C118.3515625 360.8203125 118.3515625 360.8203125 115.875 362.4375 C115.06289063 362.97632813 114.25078125 363.51515625 113.4140625 364.0703125 C111.25 365.3125 111.25 365.3125 109.25 365.3125 C109.25 365.9725 109.25 366.6325 109.25 367.3125 C90.93363497 376.78810347 73.84971349 383.78579088 52.86083984 383.73242188 C51.60345001 383.74089142 50.34606018 383.74936096 49.05056763 383.75808716 C45.64502514 383.77729183 42.24003436 383.78324743 38.83447599 383.78133965 C35.96756883 383.78121862 33.1007109 383.7898364 30.2338177 383.79811716 C23.45450934 383.81725667 16.67532404 383.82027075 9.89599609 383.81347656 C2.9601533 383.80685182 -3.97515556 383.82965842 -10.91089022 383.86679029 C-16.91571222 383.89774227 -22.9203648 383.90881981 -28.92526472 383.90495348 C-32.48949098 383.90291103 -36.05330185 383.90796666 -39.61745071 383.93284607 C-68.40732083 384.11783649 -93.45788359 379.10457624 -116.75 361.3125 C-116.75 360.6525 -116.75 359.9925 -116.75 359.3125 C-117.36875 359.003125 -117.9875 358.69375 -118.625 358.375 C-120 357.6875 -121.375 357 -122.75 356.3125 C-122.75 355.6525 -122.75 354.9925 -122.75 354.3125 C-123.41 354.3125 -124.07 354.3125 -124.75 354.3125 C-126.10386936 352.66247172 -127.43678142 350.9950613 -128.75 349.3125 C-129.41 348.9825 -130.07 348.6525 -130.75 348.3125 C-130.75 347.6525 -130.75 346.9925 -130.75 346.3125 C-131.41 346.3125 -132.07 346.3125 -132.75 346.3125 C-133.98339844 344.92651367 -133.98339844 344.92651367 -135.359375 342.98046875 C-135.86299561 342.26914795 -136.36661621 341.55782715 -136.88549805 340.82495117 C-137.41828369 340.05771729 -137.95106934 339.2904834 -138.5 338.5 C-139.05147705 337.72696533 -139.6029541 336.95393066 -140.17114258 336.1574707 C-143.16649753 331.88823427 -145.47841469 327.85483768 -147.4375 323 C-149.35268506 319.25975623 -150.34636694 318.46277032 -154.359375 316.96875 C-157.28712269 316.24834498 -160.23325495 315.71768116 -163.203125 315.203125 C-167.69773076 314.40995928 -171.73420372 313.0021254 -175.9375 311.25 C-177.69126953 310.52103516 -177.69126953 310.52103516 -179.48046875 309.77734375 C-182.61767767 308.3717842 -185.68961727 306.87752121 -188.75 305.3125 C-188.75 304.6525 -188.75 303.9925 -188.75 303.3125 C-189.43707031 303.2403125 -190.12414062 303.168125 -190.83203125 303.09375 C-194.60139851 302.08454859 -197.3456433 300.09795156 -200.4375 297.8125 C-201.05181885 297.36471191 -201.6661377 296.91692383 -202.29907227 296.45556641 C-210.0148778 290.74842515 -217.02276208 284.51574746 -223.1796875 277.13671875 C-224.75425237 275.25224667 -224.75425237 275.25224667 -226.6796875 273.44140625 C-247.82393759 251.69873399 -256.4185343 218.12931203 -256.22485352 188.81958008 C-256.00106398 179.4086411 -254.91793743 171.18889611 -251.75 162.3125 C-251.35296875 161.14847656 -250.9559375 159.98445312 -250.546875 158.78515625 C-246.73892478 148.26509126 -241.5247887 139.74222513 -234.73828125 130.9140625 C-233.34644668 129.09291943 -232.02143354 127.21965031 -230.75 125.3125 C-230.09 125.3125 -229.43 125.3125 -228.75 125.3125 C-228.5128125 124.72984375 -228.275625 124.1471875 -228.03125 123.546875 C-226.4773194 120.83697163 -224.73070569 119.44719198 -222.25 117.5625 C-221.4559375 116.94890625 -220.661875 116.3353125 -219.84375 115.703125 C-217.75 114.3125 -217.75 114.3125 -215.75 114.3125 C-215.75 113.6525 -215.75 112.9925 -215.75 112.3125 C-214.76 112.3125 -213.77 112.3125 -212.75 112.3125 C-212.75 111.6525 -212.75 110.9925 -212.75 110.3125 C-198.60545852 102.18691234 -184.37686851 95.59955085 -167.75 95.3125 C-167.10530762 95.29880371 -166.46061523 95.28510742 -165.79638672 95.27099609 C-157.37554714 95.11182286 -149.11801282 95.2498952 -140.75 96.3125 C-140.70875 95.508125 -140.6675 94.70375 -140.625 93.875 C-139.40333142 88.90106364 -136.74022698 85.40880584 -133.75 81.3125 C-132.8528125 80.013125 -132.8528125 80.013125 -131.9375 78.6875 C-123.59713636 69.63224805 -113.07488051 64.19871325 -100.75 63.3125 C-95.7977365 63.12463566 -90.84227365 63.01733633 -85.88671875 62.97070312 C-80.08890141 62.95783218 -80.08890141 62.95783218 -75.171875 60.26953125 C-74.70265625 59.62371094 -74.2334375 58.97789063 -73.75 58.3125 C-73.09 58.3125 -72.43 58.3125 -71.75 58.3125 C-71.75 57.6525 -71.75 56.9925 -71.75 56.3125 C-69.6545192 54.70399713 -67.56767584 53.21409684 -65.375 51.75 C-64.77171875 51.33814453 -64.1684375 50.92628906 -63.546875 50.50195312 C-59.12504852 47.50002426 -59.12504852 47.50002426 -56.75 46.3125 C-55.6927686 43.75924199 -54.72802908 41.22860788 -53.8125 38.625 C-52.05316327 33.67995892 -50.20665534 28.96914519 -47.75 24.3125 C-47.09 24.3125 -46.43 24.3125 -45.75 24.3125 C-45.564375 23.631875 -45.37875 22.95125 -45.1875 22.25 C-41.32104189 14.34897691 -33.12339746 8.70194385 -25.3125 5.1875 C-24.22066406 4.68992187 -23.12882813 4.19234375 -22.00390625 3.6796875 C-14.38810298 0.47977016 -8.1942662 -0.02306944 0 0 Z M-18.75 41.3125 C-22.63316202 46.01902589 -23.8938054 50.15096757 -23.875 56.1875 C-23.87757813 57.00992188 -23.88015625 57.83234375 -23.8828125 58.6796875 C-23.73475135 61.61478206 -23.28051948 64.42411617 -22.75 67.3125 C-23.56082031 67.60382813 -24.37164062 67.89515625 -25.20703125 68.1953125 C-38.50085194 73.11665706 -52.49419526 79.49977658 -60.42675781 91.94262695 C-63.0965129 94.66596792 -64.61134785 94.89941658 -68.35993958 94.95449829 C-69.08291733 94.94115448 -69.80589508 94.92781067 -70.55078125 94.9140625 C-71.68268135 94.92607193 -71.68268135 94.92607193 -72.83744812 94.93832397 C-75.24634624 94.96136968 -77.65355704 94.95195221 -80.0625 94.9375 C-82.46041686 94.93363823 -84.85758275 94.93722941 -87.25541687 94.95809937 C-88.74464019 94.97007817 -90.2340745 94.96770296 -91.72322083 94.94839478 C-97.5867694 94.97958318 -101.93952523 96.33801772 -106.74609375 99.71484375 C-111.0643075 104.31391693 -111.37447539 108.25609645 -111.25390625 114.4453125 C-110.36625399 119.49598504 -107.59713126 123.03112333 -103.75 126.3125 C-101.11777038 127.56686187 -101.11777038 127.56686187 -98.75 128.3125 C-102.81709269 133.09133391 -106.96424246 137.77406343 -111.2109375 142.39453125 C-112.95861888 144.16262447 -112.95861888 144.16262447 -112.75 146.3125 C-113.65878906 145.58804688 -114.56757813 144.86359375 -115.50390625 144.1171875 C-129.48673134 133.25459003 -142.26753106 128.1377363 -160.1875 128.125 C-161.09048828 128.11275391 -161.99347656 128.10050781 -162.92382812 128.08789062 C-180.21283584 128.05033304 -194.42437783 136.15216181 -206.6875 147.9375 C-218.7451189 160.75236067 -223.10477967 175.70761681 -223.0625 193 C-223.07861328 194.29873047 -223.09472656 195.59746094 -223.11132812 196.93554688 C-223.12167112 217.52845157 -215.00920157 236.66229486 -201.75 252.3125 C-201.0590625 253.1375 -200.368125 253.9625 -199.65625 254.8125 C-191.87472353 263.79961508 -183.13107867 270.57256709 -172.75 276.3125 C-171.63431641 276.95832031 -171.63431641 276.95832031 -170.49609375 277.6171875 C-165.2384507 280.48175782 -159.84108906 282.35813596 -154.125 284.0625 C-153.06817017 284.37876343 -153.06817017 284.37876343 -151.98999023 284.70141602 C-145.10507385 286.6615317 -138.42981351 287.45658879 -131.25 287.375 C-130.2084375 287.36597656 -129.166875 287.35695313 -128.09375 287.34765625 C-127.3203125 287.33605469 -126.546875 287.32445312 -125.75 287.3125 C-125.62625 287.993125 -125.5025 288.67375 -125.375 289.375 C-120.89597762 310.4264052 -108.30403667 327.66235053 -90.50390625 339.46484375 C-76.98220585 347.89360306 -62.59595082 351.45644776 -46.734375 351.47363281 C-45.63432632 351.47859772 -44.53427765 351.48356262 -43.40089417 351.48867798 C-39.76725635 351.50326233 -36.13366226 351.51009676 -32.5 351.515625 C-29.9637858 351.52138116 -27.42757161 351.52713883 -24.89135742 351.53289795 C-20.25106317 351.54205789 -15.61078192 351.54836135 -10.97048092 351.5513947 C-4.17593232 351.55586245 2.61841381 351.57335565 9.41290092 351.6023953 C15.32673928 351.62677871 21.24052831 351.63434695 27.15441895 351.63607025 C29.65483703 351.6390807 32.1552546 351.6470543 34.65563965 351.66025543 C53.16697009 351.84971029 53.16697009 351.84971029 71.25 348.3125 C71.99319489 348.08990005 72.73638977 347.86730011 73.50210571 347.63795471 C94.11218198 340.856434 111.14151271 325.88639991 121.1953125 306.71484375 C126.11535671 295.50807638 128.65027048 283.52074973 128.25 271.3125 C129.4875 271.374375 130.725 271.43625 132 271.5 C148.03840939 271.37528453 163.57268363 263.34389134 174.6953125 252.09765625 C181.56533094 244.6078655 185.77527178 236.83872118 189.25 227.3125 C189.60449219 226.34828125 189.95898438 225.3840625 190.32421875 224.390625 C192.34453937 217.67327206 192.41801999 210.94729452 192.49609375 203.99609375 C192.52901304 201.99543802 192.56222499 199.99478708 192.59570312 197.99414062 C192.64316992 194.86502149 192.68767601 191.73592442 192.72680664 188.60668945 C192.76658926 185.56963203 192.81809172 182.53294527 192.87109375 179.49609375 C192.8795079 178.56470078 192.88792206 177.6333078 192.89659119 176.6736908 C193.08209863 166.88793455 196.25878443 159.7128316 202.91796875 152.5078125 C209.43707169 146.51083451 215.51400843 145.40449895 224.25 144.3125 C224.25 133.7525 224.25 123.1925 224.25 112.3125 C205.82551973 112.3125 191.93052704 117.26286891 178.375 129.99609375 C166.46585962 142.97793243 161.71599623 156.78846848 160.04296875 174.12890625 C158.89811206 183.42950392 158.89811206 183.42950392 154.8671875 187.0390625 C150.10584772 190.55522984 145.03669656 190.75141112 139.25 190.3125 C134.69813972 189.17453493 132.74427099 187.25505737 130.25 183.3125 C128.17172365 178.42811212 126.58355258 173.36447353 124.98046875 168.30859375 C120.12726881 153.34227243 113.12261794 142.41075358 101.65625 131.640625 C99.25 129.3125 99.25 129.3125 98.25 127.3125 C98.95125 127.415625 99.6525 127.51875 100.375 127.625 C104.39014856 127.18857081 106.66599832 125.25291571 109.25 122.3125 C112.21451372 117.07519243 112.80837388 113.17542574 112.25 107.3125 C110.2405106 101.8128448 107.27622635 98.85747179 102.09326172 96.21142578 C98.40992531 95.04690194 94.94935871 95.10979881 91.1328125 95.1796875 C89.54036266 95.17888086 87.94791287 95.17621888 86.35546875 95.171875 C83.86415633 95.17383782 81.37519213 95.18749646 78.88427734 95.23339844 C64.97452362 95.45921507 64.97452362 95.45921507 60.69604492 92.61425781 C58.94400742 90.60059329 57.58893636 88.61544805 56.25 86.3125 C47.27720948 76.65207507 34.79975905 70.89814544 22.25 67.3125 C22.58 66.57 22.91 65.8275 23.25 65.0625 C25.10857536 58.0928424 25.55878034 51.02163865 22.25 44.4375 C18.77059515 39.00647431 14.12924176 35.68952867 8.375 32.9375 C-2.98751197 30.66499761 -10.69780904 33.08862053 -18.75 41.3125 Z " fill="#000000" transform="translate(255.75,63.6875)"/>
<path d="M0 0 C4.43865998 3.4585737 7.56694748 7.27461014 9.08984375 12.74609375 C9.73989438 18.99974536 9.68071591 24.91663138 7.08984375 30.74609375 C8.24484375 31.07609375 9.39984375 31.40609375 10.58984375 31.74609375 C23.86759636 36.26262062 38.02403239 43.0926754 45.73974609 55.37182617 C48.46733705 58.12746943 50.06881759 58.33397753 53.87789917 58.38809204 C54.62588776 58.37474823 55.37387634 58.36140442 56.14453125 58.34765625 C56.92369904 58.35566254 57.70286682 58.36366882 58.50564575 58.37191772 C60.9925754 58.39496933 63.47787048 58.3855389 65.96484375 58.37109375 C68.44437066 58.36723682 70.92317203 58.37077514 73.40261841 58.39169312 C74.94300056 58.40370889 76.48358648 58.40123431 78.02389526 58.38198853 C84.30843127 58.41446652 88.17728792 60.05087381 92.83984375 64.18359375 C96.45838509 68.30471027 97.564093 70.94958726 97.40625 76.58984375 C96.65631957 81.70048078 94.25780382 85.57813368 90.65234375 89.18359375 C85.77226248 92.15925306 80.6245644 91.89299435 75.05006409 91.88653564 C74.24556554 91.88950677 73.441067 91.89247789 72.61218971 91.89553905 C69.91926498 91.9042035 67.22638482 91.90573237 64.53344727 91.90722656 C62.60158188 91.91185621 60.66971741 91.91688107 58.737854 91.92227173 C53.4920471 91.93538078 48.24625298 91.9418374 43.00043225 91.94628239 C39.72336419 91.94921462 36.44629962 91.95331965 33.16923332 91.95778656 C22.91659962 91.97145556 12.6639739 91.98112599 2.41133171 91.98498845 C-9.42564455 91.98947236 -21.26250552 92.00703824 -33.09944671 92.03598905 C-42.24946182 92.05759212 -51.39944445 92.06769194 -60.54948479 92.06902957 C-66.01470343 92.07007828 -71.47981361 92.07600069 -76.94500542 92.09384918 C-82.08402563 92.11030677 -87.22285555 92.1124966 -92.3618927 92.10371017 C-94.24768648 92.10293865 -96.1334904 92.10729771 -98.0192585 92.11716843 C-100.59419735 92.12985607 -103.1684589 92.12402866 -105.74339294 92.11358643 C-106.48902211 92.12164283 -107.23465128 92.12969923 -108.00287527 92.13799977 C-114.24308377 92.07883923 -118.10301246 90.35244379 -122.72265625 86.24609375 C-126.52602869 81.89938239 -126.42722561 77.40563011 -126.38671875 71.8359375 C-125.72490615 67.545005 -123.96061336 65.35924191 -121.02734375 62.26953125 C-116.05211273 58.68956797 -110.843579 58.50058068 -104.9140625 58.61328125 C-103.37044072 58.61247479 -101.826819 58.60981355 -100.28320312 58.60546875 C-97.87527374 58.6074326 -95.4697751 58.62114861 -93.06225586 58.66699219 C-83.79971505 59.12849843 -83.79971505 59.12849843 -75.39404297 56.04785156 C-73.64349191 54.0345545 -72.26930521 52.03621642 -70.91015625 49.74609375 C-62.0553827 40.37045117 -50.25905673 34.21245178 -37.91015625 30.74609375 C-38.07515625 29.96234375 -38.24015625 29.17859375 -38.41015625 28.37109375 C-39.44139358 20.89462307 -39.9648808 13.4150486 -35.91015625 6.74609375 C-26.32949571 -4.51118239 -13.09442561 -8.59572724 0 0 Z " fill="#E74555" transform="translate(270.91015625,100.25390625)"/>
<path d="M0 0 C6.74579201 4.82199207 13.40531831 11.58473613 15 20 C15.0879269 22.32253754 15.11764631 24.64748203 15.11352539 26.97167969 C15.11367142 27.6647673 15.11381744 28.35785492 15.1139679 29.07194519 C15.11327307 31.35528733 15.10550085 33.63854717 15.09765625 35.921875 C15.09579054 37.50799515 15.09436736 39.09411588 15.09336853 40.68023682 C15.08955538 44.84936115 15.07973537 49.0184505 15.06866455 53.18756104 C15.05842457 57.44404629 15.05386537 61.70053722 15.04882812 65.95703125 C15.03811202 74.30470353 15.02105004 82.65234741 15 91 C-3.41310569 91.13535556 -18.02799914 84.65851512 -31.1875 71.875 C-39.06479536 63.5202928 -43.4419854 53.80176739 -47 43 C-47.495 41.515 -47.495 41.515 -48 40 C-48.97800295 29.76013752 -49.97488484 18.00619898 -43.96875 9.1953125 C-32.84182107 -3.21209635 -15.3119952 -10.18790232 0 0 Z " fill="#010000" transform="translate(113,228)"/>
<path d="M0 0 C4.43865998 3.4585737 7.56694748 7.27461014 9.08984375 12.74609375 C9.73989438 18.99974536 9.68071591 24.91663138 7.08984375 30.74609375 C8.24484375 31.07609375 9.39984375 31.40609375 10.58984375 31.74609375 C23.84303235 36.25426499 38.05124697 43.08289771 45.7265625 55.36523438 C48.48495505 58.14414389 50.18547604 58.36017123 54.03179932 58.46504211 C55.18201569 58.45914314 55.18201569 58.45914314 56.35546875 58.453125 C57.14886658 58.46824631 57.9422644 58.48336761 58.75970459 58.49894714 C61.28670643 58.54183754 63.81251414 58.5506628 66.33984375 58.55859375 C68.05602136 58.58173722 69.77217055 58.60710226 71.48828125 58.63476562 C75.68890769 58.69763049 79.88878841 58.72995532 84.08984375 58.74609375 C84.08984375 59.07609375 84.08984375 59.40609375 84.08984375 59.74609375 C19.07984375 59.74609375 -45.93015625 59.74609375 -112.91015625 59.74609375 C-112.91015625 59.41609375 -112.91015625 59.08609375 -112.91015625 58.74609375 C-111.88656006 58.75769531 -110.86296387 58.76929688 -109.80834961 58.78125 C-105.98531663 58.81395243 -102.1640218 58.79382802 -98.34106445 58.75830078 C-96.69133305 58.75022416 -95.04146747 58.75619215 -93.3918457 58.77685547 C-83.9448049 59.1870929 -83.9448049 59.1870929 -75.36767578 56.0390625 C-73.62116853 54.02813078 -72.25795645 52.03755028 -70.91015625 49.74609375 C-62.0553827 40.37045117 -50.25905673 34.21245178 -37.91015625 30.74609375 C-38.07515625 29.96234375 -38.24015625 29.17859375 -38.41015625 28.37109375 C-39.44139358 20.89462307 -39.9648808 13.4150486 -35.91015625 6.74609375 C-26.32949571 -4.51118239 -13.09442561 -8.59572724 0 0 Z " fill="#E31324" transform="translate(270.91015625,100.25390625)"/>
<path d="M0 0 C0.78812364 -0.01073235 1.57624728 -0.02146469 2.38825345 -0.03252226 C5.04413877 -0.06710462 7.700045 -0.09428584 10.35601807 -0.12123108 C12.25475849 -0.14385685 14.15349604 -0.16672535 16.05223083 -0.18981934 C33.42222471 -0.39231668 50.79325996 -0.50408477 68.1641655 -0.59303951 C79.84069712 -0.65413841 91.5157701 -0.74160877 103.19146729 -0.8966217 C113.37882554 -1.03187249 123.56517479 -1.11747089 133.75342011 -1.14344698 C139.14292895 -1.15878581 144.52976225 -1.19800646 149.9184494 -1.29632378 C154.99854917 -1.38806428 160.07471927 -1.41252132 165.15554237 -1.38733864 C167.01074751 -1.38957735 168.86611344 -1.41545083 170.72057915 -1.46787262 C180.10630941 -1.7194928 186.68532727 -1.35743331 193.77238774 5.28627151 C201.45074463 13.25456022 201.45074463 13.25456022 201.45074463 15.21446228 C127.53074463 15.54446228 53.61074463 15.87446228 -22.54925537 16.21446228 C-19.69082085 11.9268105 -17.48514203 8.89734768 -13.92425537 5.40196228 C-13.14823975 4.63239197 -12.37222412 3.86282166 -11.57269287 3.06993103 C-7.92820481 -0.27202231 -4.72212777 0.04215992 0 0 Z " fill="#AD0C19" transform="translate(166.54925537109375,191.78553771972656)"/>
<path d="M0 0 C62.7 0 125.4 0 190 0 C177.32536048 12.67463952 158.17378308 16.1316676 140.91845703 16.17700195 C139.2753933 16.18685875 139.2753933 16.18685875 137.59913635 16.19691467 C133.98536092 16.21657133 130.37162698 16.22829599 126.7578125 16.23828125 C125.51670589 16.24235678 124.27559929 16.2464323 122.99688339 16.25063133 C117.09848467 16.26932068 111.20009893 16.28389007 105.30167782 16.2922433 C98.54106873 16.30198072 91.78079009 16.32821814 85.02029717 16.36874419 C79.12728331 16.40283071 73.2343777 16.41441184 67.34127426 16.41844749 C64.85448854 16.42328379 62.36770558 16.43481198 59.88098526 16.45348549 C42.94878454 16.57268844 26.42001116 16.34122536 11.1875 8 C10.53458984 7.67 9.88167969 7.34 9.20898438 7 C5.37985871 5.00151647 3.13475411 3.13475411 0 0 Z " fill="#AC0C19" transform="translate(161,399)"/>
<path d="M0 0 C4.43865998 3.4585737 7.56694748 7.27461014 9.08984375 12.74609375 C9.76397572 19.231414 9.36394499 24.61511681 7.08984375 30.74609375 C6.28804688 30.60171875 5.48625 30.45734375 4.66015625 30.30859375 C-9.19643376 28.04629334 -22.96578831 28.21494747 -36.91015625 29.74609375 C-39.68775644 23.51585906 -39.91264421 17.17116728 -37.91015625 10.62109375 C-35.39356321 4.66838329 -30.18411838 0.2620685 -24.91015625 -3.25390625 C-16.41373795 -5.82857846 -7.39468327 -4.85417859 0 0 Z " fill="#E54554" transform="translate(270.91015625,100.25390625)"/>
</svg>
